<?xml version="1.0" encoding="UTF-8" standalone="no"?>
<!-- Created with Inkscape (http://www.inkscape.org/) -->

<svg
   width="114.9463mm"
   height="187.86082mm"
   viewBox="0 0 114.9463 187.86082"
   version="1.1"
   id="svg1"
   xmlns="http://www.w3.org/2000/svg"
   xmlns:svg="http://www.w3.org/2000/svg">
  <defs
     id="defs1" />
  <g
     id="layer1"
     transform="translate(-47.52685,-0.0268565)">
    <path
       id="path3"
       style="opacity:1;fill:#f9f9f9;stroke:#000000;stroke-width:2;stroke-dasharray:none"
       d="M 104.99945,1.0268565 C 73.810419,1.0270033 48.527,26.312467 48.526852,57.503695 V 175.59242 a 11.295421,11.295421 0 0 0 11.295263,11.29526 11.295421,11.295421 0 0 0 11.295793,-11.29526 11.295421,11.295421 0 0 0 -0.0042,-0.29557 11.295421,11.295421 0 0 1 11.291548,-10.9997 11.295421,11.295421 0 0 1 11.295263,11.29527 11.295421,11.295421 0 0 0 11.295261,11.29526 11.295421,11.295421 0 0 0 11.29579,-11.29526 11.295421,11.295421 0 0 1 11.29527,-11.29527 11.295421,11.295421 0 0 1 11.29525,11.29527 11.295421,11.295421 0 0 0 11.2958,11.29526 11.295421,11.295421 0 0 0 11.29526,-11.29526 V 57.503695 C 161.47297,26.312259 136.18869,1.0267086 104.99945,1.0268565 Z" />
    <path
       style="opacity:1;fill:#1a1a1a;stroke:#000000;stroke-width:0;stroke-dasharray:none"
       id="path8"
       d="m 52.020791,79.841003 c -6.383498,10e-7 -19.150494,-22.113083 -15.958745,-27.641355 3.191748,-5.528271 28.725739,-5.528272 31.917488,-1e-6 3.191749,5.528271 -9.575246,27.641356 -15.958743,27.641356 z"
       transform="matrix(0.60743788,0,0,0.62917697,73.400602,39.514795)" />
    <g
       id="g24"
       transform="matrix(1.2166667,0,0,1.2166667,41.153282,-253.43379)">
      <ellipse
         style="opacity:1;fill:#f9f9f9;stroke:#333333;stroke-width:1.38367;stroke-dasharray:none"
         id="path14"
         cx="35.397728"
         cy="246.36458"
         rx="12.229139"
         ry="17.808167" />
      <ellipse
         style="fill:#f9f9f9;stroke:#333333;stroke-width:1.38367;stroke-dasharray:none"
         id="path14-9"
         cx="69.555779"
         cy="246.36458"
         rx="12.229139"
         ry="17.808167" />
      <path
         d="m 35.397839,231.36469 a 9.5,15 0 0 0 -9.500195,15.00012 9.5,15 0 0 0 9.500195,14.9996 9.5,15 0 0 0 9.499679,-14.9996 9.5,15 0 0 0 -2.659269,-10.40815 l -4.022494,3.98425 2.638082,-5.85597 a 9.5,15 0 0 0 -5.455998,-2.72025 z"
         style="fill:#1a1a1a;stroke:#333333;stroke-width:0"
         id="path16" />
      <path
         d="m 69.555961,231.36469 a 9.5,15 0 0 0 -9.500195,15.00012 9.5,15 0 0 0 9.500195,14.9996 9.5,15 0 0 0 9.499679,-14.9996 9.5,15 0 0 0 -3.281971,-11.34091 l -4.200777,4.16047 2.651001,-5.88388 a 9.5,15 0 0 0 -4.667932,-1.9358 z"
         style="fill:#1a1a1a;stroke:#333333;stroke-width:0"
         id="path18" />
    </g>
  </g>
</svg>
